<svg width="14" height="10" viewBox="0 0 14 10" fill="none" xmlns="http://www.w3.org/2000/svg">
<path d="M0.332031 7.00065V3.00065C0.332031 2.63398 0.462587 2.3201 0.723698 2.05898C0.984809 1.79787 1.2987 1.66732 1.66536 1.66732C2.03203 1.66732 2.34592 1.79787 2.60703 2.05898C2.86814 2.3201 2.9987 2.63398 2.9987 3.00065V7.00065C2.9987 7.36732 2.86814 7.68121 2.60703 7.94232C2.34592 8.20343 2.03203 8.33398 1.66536 8.33398C1.2987 8.33398 0.984809 8.20343 0.723698 7.94232C0.462587 7.68121 0.332031 7.36732 0.332031 7.00065ZM4.9987 9.66732C4.63203 9.66732 4.31814 9.53676 4.05703 9.27565C3.79592 9.01454 3.66536 8.70065 3.66536 8.33398V1.66732C3.66536 1.30065 3.79592 0.986762 4.05703 0.725651C4.31814 0.46454 4.63203 0.333984 4.9987 0.333984H8.9987C9.36537 0.333984 9.67925 0.46454 9.94036 0.725651C10.2015 0.986762 10.332 1.30065 10.332 1.66732V8.33398C10.332 8.70065 10.2015 9.01454 9.94036 9.27565C9.67925 9.53676 9.36537 9.66732 8.9987 9.66732H4.9987ZM10.9987 7.00065V3.00065C10.9987 2.63398 11.1293 2.3201 11.3904 2.05898C11.6515 1.79787 11.9654 1.66732 12.332 1.66732C12.6987 1.66732 13.0126 1.79787 13.2737 2.05898C13.5348 2.3201 13.6654 2.63398 13.6654 3.00065V7.00065C13.6654 7.36732 13.5348 7.68121 13.2737 7.94232C13.0126 8.20343 12.6987 8.33398 12.332 8.33398C11.9654 8.33398 11.6515 8.20343 11.3904 7.94232C11.1293 7.68121 10.9987 7.36732 10.9987 7.00065Z" fill="#2867B2"/>
</svg>
